<svg xmlns="http://www.w3.org/2000/svg"  viewBox="0 0 64 64" width="64px" height="64px"><linearGradient id="NA_TyEfAf0B9Zg7_jgPkka" x1="32" x2="32" y1="58.49" y2="3.594" gradientTransform="matrix(1 0 0 -1 0 64)" gradientUnits="userSpaceOnUse"><stop offset="0" stop-color="#1a6dff"/><stop offset="1" stop-color="#c822ff"/></linearGradient><path fill="url(#NA_TyEfAf0B9Zg7_jgPkka)" d="M58.78,28.61l-1.11-0.48l-1.8-0.78l-0.7-0.3l-4.21-1.82l-0.02-0.01l-2.29-1.53l-3.34-2.22	L30.22,5l0.59,4.98L27,6.17v6.74l-12.14,11.4L2,30l10.33,7v1.89L24.8,52.91l0.3-0.89l7.34,8.57L35,55.47l2.79-1.58l0.76-1.51	l1.76,1.76L51.73,37h1.51l3.07-6.13L62,30L58.78,28.61z M24,49l-8-9l8,3l1,3L24,49z M24,41l-4-1l-5-5h-2l-4-3h6l5,5h2l1-1l2,3	C25,39,24,40,24,41z M33,55l-1,2l-6-7v-7l3,7l2-1l2,4V55z M38,49l-2,4c0-2-1-3-1-3h-2l-1-2l3-1l2-5l1,4V49z M40,51l-1-1l1-5l8-6	L40,51z M52,35h-3l-1.2,1.07L40,43c0-2-2-4-2-4v-1l2-3l2,2l2-1l3-3h4l2.78-1.85L54,31l-0.07,0.13L52,35z"/><linearGradient id="NA_TyEfAf0B9Zg7_jgPkkb" x1="32" x2="32" y1="52.697" y2="20.109" gradientTransform="matrix(1 0 0 -1 0 64)" gradientUnits="userSpaceOnUse"><stop offset="0" stop-color="#6dc7ff"/><stop offset="1" stop-color="#e6abff"/></linearGradient><path fill="url(#NA_TyEfAf0B9Zg7_jgPkkb)" d="M29,11v3l4,4v-3L29,11z M55,29l-5-2l-6-4L33,11l9,17l-6-3l-8.14-10.17l-2.68,2.41L33,28l-6-4	l-3.5-5.25L21,21l3,4l-4-3l-4,4l-7,3l9,1l-2,1l8,2l6,11l2-4l-1-3l3,4l5-8l8-2l-1-1L55,29z"/></svg>